<mxfile host="app.diagrams.net" agent="Mozilla/5.0 (Windows NT 10.0; Win64; x64) AppleWebKit/537.36 (KHTML, like Gecko) Chrome/134.0.0.0 Safari/537.36 Edg/134.0.0.0" version="26.1.2" pages="2">
  <diagram name="Страница — 1" id="SSzG0GtPFmyp0IV2P6Vj">
    <mxGraphModel dx="983" dy="539" grid="1" gridSize="10" guides="1" tooltips="1" connect="1" arrows="1" fold="1" page="1" pageScale="1" pageWidth="827" pageHeight="1169" math="0" shadow="0">
      <root>
        <mxCell id="0" />
        <mxCell id="1" parent="0" />
        <mxCell id="7DhE1Vs1o4a62_BTefIA-2" value="Deployment" style="text;html=1;align=center;verticalAlign=middle;whiteSpace=wrap;rounded=0;" vertex="1" parent="1">
          <mxGeometry x="170" y="330" width="60" height="30" as="geometry" />
        </mxCell>
        <mxCell id="7DhE1Vs1o4a62_BTefIA-3" value="БД" style="shape=cylinder3;whiteSpace=wrap;html=1;boundedLbl=1;backgroundOutline=1;size=15;" vertex="1" parent="1">
          <mxGeometry x="330" y="380" width="60" height="80" as="geometry" />
        </mxCell>
        <mxCell id="7DhE1Vs1o4a62_BTefIA-4" value="Узел" style="shape=cube;whiteSpace=wrap;html=1;boundedLbl=1;backgroundOutline=1;darkOpacity=0.05;darkOpacity2=0.1;" vertex="1" parent="1">
          <mxGeometry x="160" y="380" width="120" height="80" as="geometry" />
        </mxCell>
        <mxCell id="7DhE1Vs1o4a62_BTefIA-5" value="Подсистема" style="rounded=0;whiteSpace=wrap;html=1;" vertex="1" parent="1">
          <mxGeometry x="180" y="540" width="120" height="60" as="geometry" />
        </mxCell>
        <mxCell id="7DhE1Vs1o4a62_BTefIA-6" value="https:80" style="text;html=1;align=center;verticalAlign=middle;whiteSpace=wrap;rounded=0;" vertex="1" parent="1">
          <mxGeometry x="540" y="530" width="60" height="30" as="geometry" />
        </mxCell>
        <mxCell id="7DhE1Vs1o4a62_BTefIA-7" value="" style="endArrow=none;html=1;rounded=0;" edge="1" parent="1">
          <mxGeometry width="50" height="50" relative="1" as="geometry">
            <mxPoint x="500" y="450" as="sourcePoint" />
            <mxPoint x="550" y="400" as="targetPoint" />
          </mxGeometry>
        </mxCell>
        <mxCell id="7DhE1Vs1o4a62_BTefIA-8" value="" style="endArrow=none;html=1;rounded=0;" edge="1" parent="1">
          <mxGeometry width="50" height="50" relative="1" as="geometry">
            <mxPoint x="500" y="490" as="sourcePoint" />
            <mxPoint x="550" y="530" as="targetPoint" />
          </mxGeometry>
        </mxCell>
        <mxCell id="7DhE1Vs1o4a62_BTefIA-9" value="" style="endArrow=none;html=1;rounded=0;" edge="1" parent="1">
          <mxGeometry width="50" height="50" relative="1" as="geometry">
            <mxPoint x="590" y="565" as="sourcePoint" />
            <mxPoint x="660" y="605" as="targetPoint" />
          </mxGeometry>
        </mxCell>
        <mxCell id="s0OaWHmilb_NQtzqH2-1-1" value="" style="shape=cube;whiteSpace=wrap;html=1;boundedLbl=1;backgroundOutline=1;darkOpacity=0.05;darkOpacity2=0.1;" vertex="1" parent="1">
          <mxGeometry x="130" y="820" width="120" height="170" as="geometry" />
        </mxCell>
        <mxCell id="s0OaWHmilb_NQtzqH2-1-2" value="Deployment &quot;Диплом&quot;" style="text;html=1;align=center;verticalAlign=middle;whiteSpace=wrap;rounded=0;" vertex="1" parent="1">
          <mxGeometry x="120" y="740" width="130" height="30" as="geometry" />
        </mxCell>
        <mxCell id="s0OaWHmilb_NQtzqH2-1-5" style="edgeStyle=orthogonalEdgeStyle;rounded=0;orthogonalLoop=1;jettySize=auto;html=1;entryX=0.5;entryY=0;entryDx=0;entryDy=0;endArrow=none;startFill=0;startArrow=none;dashed=1;dashPattern=8 8;" edge="1" parent="1" source="s0OaWHmilb_NQtzqH2-1-3" target="s0OaWHmilb_NQtzqH2-1-4">
          <mxGeometry relative="1" as="geometry" />
        </mxCell>
        <mxCell id="s0OaWHmilb_NQtzqH2-1-3" value="Presentation" style="rounded=0;whiteSpace=wrap;html=1;" vertex="1" parent="1">
          <mxGeometry x="160" y="875" width="80" height="35" as="geometry" />
        </mxCell>
        <mxCell id="s0OaWHmilb_NQtzqH2-1-4" value="Logic" style="rounded=0;whiteSpace=wrap;html=1;" vertex="1" parent="1">
          <mxGeometry x="160" y="940" width="80" height="35" as="geometry" />
        </mxCell>
        <mxCell id="s0OaWHmilb_NQtzqH2-1-6" value="UserClient" style="text;html=1;align=center;verticalAlign=middle;whiteSpace=wrap;rounded=0;" vertex="1" parent="1">
          <mxGeometry x="170" y="845" width="60" height="30" as="geometry" />
        </mxCell>
        <mxCell id="s0OaWHmilb_NQtzqH2-1-7" value="" style="shape=cube;whiteSpace=wrap;html=1;boundedLbl=1;backgroundOutline=1;darkOpacity=0.05;darkOpacity2=0.1;" vertex="1" parent="1">
          <mxGeometry x="340" y="820" width="120" height="170" as="geometry" />
        </mxCell>
        <mxCell id="s0OaWHmilb_NQtzqH2-1-8" style="edgeStyle=orthogonalEdgeStyle;rounded=0;orthogonalLoop=1;jettySize=auto;html=1;entryX=0.5;entryY=0;entryDx=0;entryDy=0;endArrow=none;startFill=0;startArrow=none;dashed=1;dashPattern=8 8;" edge="1" parent="1" source="s0OaWHmilb_NQtzqH2-1-9" target="s0OaWHmilb_NQtzqH2-1-10">
          <mxGeometry relative="1" as="geometry" />
        </mxCell>
        <mxCell id="s0OaWHmilb_NQtzqH2-1-9" value="Presentation" style="rounded=0;whiteSpace=wrap;html=1;" vertex="1" parent="1">
          <mxGeometry x="370" y="875" width="80" height="35" as="geometry" />
        </mxCell>
        <mxCell id="s0OaWHmilb_NQtzqH2-1-10" value="Logic" style="rounded=0;whiteSpace=wrap;html=1;" vertex="1" parent="1">
          <mxGeometry x="370" y="940" width="80" height="35" as="geometry" />
        </mxCell>
        <mxCell id="s0OaWHmilb_NQtzqH2-1-11" value="ServerClient" style="text;html=1;align=center;verticalAlign=middle;whiteSpace=wrap;rounded=0;" vertex="1" parent="1">
          <mxGeometry x="380" y="845" width="60" height="30" as="geometry" />
        </mxCell>
        <mxCell id="s0OaWHmilb_NQtzqH2-1-12" value="" style="shape=cube;whiteSpace=wrap;html=1;boundedLbl=1;backgroundOutline=1;darkOpacity=0.05;darkOpacity2=0.1;" vertex="1" parent="1">
          <mxGeometry x="530" y="820" width="120" height="170" as="geometry" />
        </mxCell>
        <mxCell id="s0OaWHmilb_NQtzqH2-1-16" value="DatabaseClient" style="text;html=1;align=center;verticalAlign=middle;whiteSpace=wrap;rounded=0;" vertex="1" parent="1">
          <mxGeometry x="570" y="845" width="60" height="30" as="geometry" />
        </mxCell>
        <mxCell id="s0OaWHmilb_NQtzqH2-1-17" value="MSSMS" style="shape=cylinder3;whiteSpace=wrap;html=1;boundedLbl=1;backgroundOutline=1;size=15;" vertex="1" parent="1">
          <mxGeometry x="570" y="895" width="60" height="80" as="geometry" />
        </mxCell>
        <mxCell id="s0OaWHmilb_NQtzqH2-1-18" style="edgeStyle=orthogonalEdgeStyle;rounded=0;orthogonalLoop=1;jettySize=auto;html=1;entryX=-0.011;entryY=0.499;entryDx=0;entryDy=0;entryPerimeter=0;endArrow=none;startFill=0;" edge="1" parent="1" source="s0OaWHmilb_NQtzqH2-1-7" target="s0OaWHmilb_NQtzqH2-1-12">
          <mxGeometry relative="1" as="geometry" />
        </mxCell>
        <mxCell id="s0OaWHmilb_NQtzqH2-1-19" style="edgeStyle=orthogonalEdgeStyle;rounded=0;orthogonalLoop=1;jettySize=auto;html=1;entryX=-0.025;entryY=0.499;entryDx=0;entryDy=0;entryPerimeter=0;dashed=1;dashPattern=8 8;endArrow=none;startFill=0;" edge="1" parent="1" source="s0OaWHmilb_NQtzqH2-1-1" target="s0OaWHmilb_NQtzqH2-1-7">
          <mxGeometry relative="1" as="geometry" />
        </mxCell>
        <mxCell id="s0OaWHmilb_NQtzqH2-1-20" value="HTTP/S, FTP" style="text;html=1;align=center;verticalAlign=middle;whiteSpace=wrap;rounded=0;" vertex="1" parent="1">
          <mxGeometry x="340" y="760" width="110" height="30" as="geometry" />
        </mxCell>
        <mxCell id="s0OaWHmilb_NQtzqH2-1-21" value="HTTPS:80" style="text;html=1;align=center;verticalAlign=middle;whiteSpace=wrap;rounded=0;" vertex="1" parent="1">
          <mxGeometry x="270" y="880" width="60" height="30" as="geometry" />
        </mxCell>
        <mxCell id="s0OaWHmilb_NQtzqH2-1-22" value="" style="shape=cube;whiteSpace=wrap;html=1;boundedLbl=1;backgroundOutline=1;darkOpacity=0.05;darkOpacity2=0.1;" vertex="1" parent="1">
          <mxGeometry x="130" y="1090" width="120" height="170" as="geometry" />
        </mxCell>
        <mxCell id="s0OaWHmilb_NQtzqH2-1-23" style="edgeStyle=orthogonalEdgeStyle;rounded=0;orthogonalLoop=1;jettySize=auto;html=1;entryX=0.5;entryY=0;entryDx=0;entryDy=0;endArrow=none;startFill=0;startArrow=none;dashed=1;dashPattern=8 8;" edge="1" source="s0OaWHmilb_NQtzqH2-1-24" target="s0OaWHmilb_NQtzqH2-1-25" parent="1">
          <mxGeometry relative="1" as="geometry" />
        </mxCell>
        <mxCell id="s0OaWHmilb_NQtzqH2-1-24" value="Presentation" style="rounded=0;whiteSpace=wrap;html=1;" vertex="1" parent="1">
          <mxGeometry x="160" y="1145" width="80" height="35" as="geometry" />
        </mxCell>
        <mxCell id="s0OaWHmilb_NQtzqH2-1-25" value="Logic" style="rounded=0;whiteSpace=wrap;html=1;" vertex="1" parent="1">
          <mxGeometry x="160" y="1210" width="80" height="35" as="geometry" />
        </mxCell>
        <mxCell id="s0OaWHmilb_NQtzqH2-1-26" value="UserClient" style="text;html=1;align=center;verticalAlign=middle;whiteSpace=wrap;rounded=0;" vertex="1" parent="1">
          <mxGeometry x="170" y="1115" width="60" height="30" as="geometry" />
        </mxCell>
        <mxCell id="s0OaWHmilb_NQtzqH2-1-28" value="" style="shape=cube;whiteSpace=wrap;html=1;boundedLbl=1;backgroundOutline=1;darkOpacity=0.05;darkOpacity2=0.1;" vertex="1" parent="1">
          <mxGeometry x="330" y="1090" width="290" height="170" as="geometry" />
        </mxCell>
        <mxCell id="s0OaWHmilb_NQtzqH2-1-42" style="edgeStyle=orthogonalEdgeStyle;rounded=0;orthogonalLoop=1;jettySize=auto;html=1;entryX=0;entryY=0.5;entryDx=0;entryDy=0;dashed=1;dashPattern=8 8;" edge="1" parent="1" source="s0OaWHmilb_NQtzqH2-1-30" target="s0OaWHmilb_NQtzqH2-1-36">
          <mxGeometry relative="1" as="geometry">
            <Array as="points">
              <mxPoint x="410" y="1160" />
              <mxPoint x="410" y="1158" />
            </Array>
          </mxGeometry>
        </mxCell>
        <mxCell id="s0OaWHmilb_NQtzqH2-1-49" style="edgeStyle=orthogonalEdgeStyle;rounded=0;orthogonalLoop=1;jettySize=auto;html=1;entryX=1;entryY=0.25;entryDx=0;entryDy=0;" edge="1" parent="1" source="s0OaWHmilb_NQtzqH2-1-30" target="s0OaWHmilb_NQtzqH2-1-25">
          <mxGeometry relative="1" as="geometry">
            <Array as="points">
              <mxPoint x="280" y="1180" />
              <mxPoint x="280" y="1219" />
            </Array>
          </mxGeometry>
        </mxCell>
        <mxCell id="s0OaWHmilb_NQtzqH2-1-30" value="API" style="rounded=0;whiteSpace=wrap;html=1;" vertex="1" parent="1">
          <mxGeometry x="360" y="1145" width="30" height="105" as="geometry" />
        </mxCell>
        <mxCell id="s0OaWHmilb_NQtzqH2-1-32" value="ServerClient" style="text;html=1;align=center;verticalAlign=middle;whiteSpace=wrap;rounded=0;" vertex="1" parent="1">
          <mxGeometry x="470" y="1115" width="60" height="30" as="geometry" />
        </mxCell>
        <mxCell id="s0OaWHmilb_NQtzqH2-1-47" style="edgeStyle=orthogonalEdgeStyle;rounded=0;orthogonalLoop=1;jettySize=auto;html=1;entryX=1;entryY=0.25;entryDx=0;entryDy=0;" edge="1" parent="1" source="s0OaWHmilb_NQtzqH2-1-33" target="s0OaWHmilb_NQtzqH2-1-40">
          <mxGeometry relative="1" as="geometry">
            <Array as="points">
              <mxPoint x="645" y="1170" />
              <mxPoint x="645" y="1171" />
            </Array>
          </mxGeometry>
        </mxCell>
        <mxCell id="s0OaWHmilb_NQtzqH2-1-33" value="" style="shape=cube;whiteSpace=wrap;html=1;boundedLbl=1;backgroundOutline=1;darkOpacity=0.05;darkOpacity2=0.1;" vertex="1" parent="1">
          <mxGeometry x="680" y="1090" width="120" height="170" as="geometry" />
        </mxCell>
        <mxCell id="s0OaWHmilb_NQtzqH2-1-34" value="DatabaseClient" style="text;html=1;align=center;verticalAlign=middle;whiteSpace=wrap;rounded=0;" vertex="1" parent="1">
          <mxGeometry x="720" y="1115" width="60" height="30" as="geometry" />
        </mxCell>
        <mxCell id="s0OaWHmilb_NQtzqH2-1-35" value="MSSMS" style="shape=cylinder3;whiteSpace=wrap;html=1;boundedLbl=1;backgroundOutline=1;size=15;" vertex="1" parent="1">
          <mxGeometry x="720" y="1165" width="60" height="80" as="geometry" />
        </mxCell>
        <mxCell id="s0OaWHmilb_NQtzqH2-1-43" style="edgeStyle=orthogonalEdgeStyle;rounded=0;orthogonalLoop=1;jettySize=auto;html=1;exitX=0.5;exitY=1;exitDx=0;exitDy=0;entryX=0.5;entryY=0;entryDx=0;entryDy=0;dashed=1;dashPattern=12 12;" edge="1" parent="1" source="s0OaWHmilb_NQtzqH2-1-36" target="s0OaWHmilb_NQtzqH2-1-38">
          <mxGeometry relative="1" as="geometry" />
        </mxCell>
        <mxCell id="s0OaWHmilb_NQtzqH2-1-36" value="DTO Models" style="rounded=0;whiteSpace=wrap;html=1;" vertex="1" parent="1">
          <mxGeometry x="420" y="1145" width="140" height="25" as="geometry" />
        </mxCell>
        <mxCell id="s0OaWHmilb_NQtzqH2-1-44" style="edgeStyle=orthogonalEdgeStyle;rounded=0;orthogonalLoop=1;jettySize=auto;html=1;exitX=0.5;exitY=1;exitDx=0;exitDy=0;entryX=0.5;entryY=0;entryDx=0;entryDy=0;dashed=1;dashPattern=12 12;" edge="1" parent="1" source="s0OaWHmilb_NQtzqH2-1-38" target="s0OaWHmilb_NQtzqH2-1-39">
          <mxGeometry relative="1" as="geometry" />
        </mxCell>
        <mxCell id="s0OaWHmilb_NQtzqH2-1-38" value="Mapping Model" style="rounded=0;whiteSpace=wrap;html=1;" vertex="1" parent="1">
          <mxGeometry x="420" y="1180" width="140" height="25" as="geometry" />
        </mxCell>
        <mxCell id="s0OaWHmilb_NQtzqH2-1-39" value="DataModel" style="rounded=0;whiteSpace=wrap;html=1;" vertex="1" parent="1">
          <mxGeometry x="420" y="1220" width="140" height="25" as="geometry" />
        </mxCell>
        <mxCell id="s0OaWHmilb_NQtzqH2-1-40" value="API" style="rounded=0;whiteSpace=wrap;html=1;" vertex="1" parent="1">
          <mxGeometry x="580" y="1145" width="30" height="105" as="geometry" />
        </mxCell>
        <mxCell id="s0OaWHmilb_NQtzqH2-1-41" style="edgeStyle=orthogonalEdgeStyle;rounded=0;orthogonalLoop=1;jettySize=auto;html=1;entryX=0;entryY=0.5;entryDx=0;entryDy=0;" edge="1" parent="1" source="s0OaWHmilb_NQtzqH2-1-25" target="s0OaWHmilb_NQtzqH2-1-30">
          <mxGeometry relative="1" as="geometry">
            <Array as="points">
              <mxPoint x="300" y="1227" />
              <mxPoint x="300" y="1197" />
            </Array>
          </mxGeometry>
        </mxCell>
        <mxCell id="s0OaWHmilb_NQtzqH2-1-45" style="edgeStyle=orthogonalEdgeStyle;rounded=0;orthogonalLoop=1;jettySize=auto;html=1;entryX=0.039;entryY=0.832;entryDx=0;entryDy=0;entryPerimeter=0;dashed=1;dashPattern=8 8;" edge="1" parent="1" source="s0OaWHmilb_NQtzqH2-1-39" target="s0OaWHmilb_NQtzqH2-1-40">
          <mxGeometry relative="1" as="geometry" />
        </mxCell>
        <mxCell id="s0OaWHmilb_NQtzqH2-1-46" style="edgeStyle=orthogonalEdgeStyle;rounded=0;orthogonalLoop=1;jettySize=auto;html=1;entryX=-0.004;entryY=0.631;entryDx=0;entryDy=0;entryPerimeter=0;" edge="1" parent="1" source="s0OaWHmilb_NQtzqH2-1-40" target="s0OaWHmilb_NQtzqH2-1-33">
          <mxGeometry relative="1" as="geometry" />
        </mxCell>
        <mxCell id="s0OaWHmilb_NQtzqH2-1-48" style="edgeStyle=orthogonalEdgeStyle;rounded=0;orthogonalLoop=1;jettySize=auto;html=1;entryX=0.995;entryY=0.269;entryDx=0;entryDy=0;entryPerimeter=0;dashed=1;dashPattern=12 12;" edge="1" parent="1" source="s0OaWHmilb_NQtzqH2-1-36" target="s0OaWHmilb_NQtzqH2-1-30">
          <mxGeometry relative="1" as="geometry">
            <Array as="points">
              <mxPoint x="400" y="1170" />
              <mxPoint x="400" y="1173" />
            </Array>
          </mxGeometry>
        </mxCell>
        <mxCell id="s0OaWHmilb_NQtzqH2-1-50" value="HTTPS:80" style="text;html=1;align=center;verticalAlign=middle;whiteSpace=wrap;rounded=0;" vertex="1" parent="1">
          <mxGeometry x="260" y="1140" width="60" height="30" as="geometry" />
        </mxCell>
      </root>
    </mxGraphModel>
  </diagram>
  <diagram id="R3MrmlBUmBO5czv9LFFT" name="Страница — 2">
    <mxGraphModel dx="1426" dy="781" grid="1" gridSize="10" guides="1" tooltips="1" connect="1" arrows="1" fold="1" page="1" pageScale="1" pageWidth="827" pageHeight="1169" math="0" shadow="0">
      <root>
        <mxCell id="0" />
        <mxCell id="1" parent="0" />
      </root>
    </mxGraphModel>
  </diagram>
</mxfile>
